<?xml version="1.0" encoding="iso-8859-1"?>
<!-- Generator: Adobe Illustrator 19.0.0, SVG Export Plug-In . SVG Version: 6.00 Build 0)  -->
<svg version="1.1" id="Capa_1" xmlns="http://www.w3.org/2000/svg" xmlns:xlink="http://www.w3.org/1999/xlink" x="0px" y="0px"
	 viewBox="0 0 443.317 443.317" style="enable-background:new 0 0 443.317 443.317;" xml:space="preserve">
<path style="fill:#E1E6E9;" d="M371.949,109.951l-32.843,311.637c-1.061,12.3-11.364,21.729-23.727,21.729H127.937
	c-12.301,0-22.603-9.428-23.727-21.729L71.368,109.951c2.872,0.873,5.931,1.374,9.116,1.374h282.412
	C366.08,111.325,369.077,110.825,371.949,109.951z"/>
<path style="fill:#D5D6DB;" d="M392.742,81.416c0,8.242-3.372,15.735-8.742,21.167c-3.309,3.371-7.43,5.87-12.05,7.368
	c-2.872,0.873-5.869,1.374-9.053,1.374H80.484c-3.184,0-6.244-0.5-9.116-1.374c-12.052-3.934-20.793-15.173-20.793-28.535
	c0-8.242,3.372-15.735,8.741-21.105c5.433-5.37,12.925-8.742,21.168-8.742h282.412C379.379,51.569,392.742,64.931,392.742,81.416z"
	/>
<g>
	<path style="fill:#64798A;" d="M221.659,390.316L221.659,390.316c-4.936,0-8.937-4.001-8.937-8.937V171.889
		c0-4.936,4.001-8.937,8.937-8.937l0,0c4.936,0,8.937,4.001,8.937,8.937v209.489C230.596,386.315,226.594,390.316,221.659,390.316z"
		/>
	<path style="fill:#64798A;" d="M281.239,335.495L281.239,335.495c-4.936,0-8.937-4.001-8.937-8.937V226.71
		c0-4.936,4.001-8.937,8.937-8.937l0,0c4.936,0,8.937,4.001,8.937,8.937v99.849C290.176,331.494,286.175,335.495,281.239,335.495z"
		/>
	<path style="fill:#64798A;" d="M162.078,335.495L162.078,335.495c-4.936,0-8.937-4.001-8.937-8.937V226.71
		c0-4.936,4.001-8.937,8.937-8.937h0c4.936,0,8.937,4.001,8.937,8.937v99.849C171.015,331.494,167.014,335.495,162.078,335.495z"/>
	<path style="fill:#64798A;" d="M288.761,0H154.589c-9.871,0-17.874,8.002-17.874,17.874v33.67h17.877V29.791
		c0-6.581,5.335-11.916,11.916-11.916h110.341c6.581,0,11.916,5.336,11.916,11.916v21.754h17.871v-33.67
		C306.635,8.002,298.634,0,288.761,0z"/>
</g>
<g>
</g>
<g>
</g>
<g>
</g>
<g>
</g>
<g>
</g>
<g>
</g>
<g>
</g>
<g>
</g>
<g>
</g>
<g>
</g>
<g>
</g>
<g>
</g>
<g>
</g>
<g>
</g>
<g>
</g>
</svg>
